<svg width="464" height="431" viewBox="0 0 26442 23100" fill="none" xmlns="http://www.w3.org/2000/svg">
<path fill-rule="evenodd" clip-rule="evenodd" d="M15672.6 -9083.46C19317.8 -8910.27 23152.1 -7555.65 25377.7 -4735.36C27435.5 -2127.68 26052.8 1575.07 26640.6 4815.14C27113.2 7420.01 28876.9 9730.64 28476.7 12347C28033.4 15245.6 26619.8 18011.7 24331.5 19911.6C21934.8 21901.5 18760.5 23573.4 15672.6 22977.6C12679.8 22400.2 11747.5 18613 9190.52 16990.2C6392.81 15214.6 1515.18 16187.7 236.354 13181C-1016.42 10235.6 3083.47 7648.19 3904.33 4561.56C4813.6 1142.45 2923.78 -2988.17 5255.26 -5691.45C7670.71 -8492.1 11924.3 -9261.56 15672.6 -9083.46Z" fill="#FDC435"/>
</svg>
